<?xml version="1.0" encoding="UTF-8" standalone="no"?>
<svg width="340px" height="340px" viewBox="0 0 340 340" version="1.1" xmlns="http://www.w3.org/2000/svg" xmlns:xlink="http://www.w3.org/1999/xlink">
    <defs></defs>
    <g id="Front" stroke="none" stroke-width="1" fill="none" fill-rule="evenodd">
        <g id="Mobile" transform="translate(-150.000000, -228.000000)">
            <g id="labs-logo" transform="translate(150.000000, 228.000000)">
                <path d="M170,170 L170,136 L170,170 L204,170 L170,170 Z M170,170 L170,204 L170,170 L136,170 L170,170 Z M170,238 L170,340 M238,170 L340,170 M170,102 L170,0 M102,170 L0,170" id="labs-logo-target" stroke="#403E35" stroke-width="3"></path>
                <path d="M66.4133333,41.5782222 L69.8095556,41.5782222 L69.8095556,113.204889 L109.702889,113.204889 L109.702889,116.378222 L66.4133333,116.378222 L66.4133333,41.5782222" id="labs-logo-l" fill="#403E35"></path>
                <path d="M268.294,90.3644444 L237.807333,90.3644444 L228.404444,117.111111 L224.777778,117.111111 L251.524444,42.3148889 L254.697778,42.3148889 L281.444444,117.111111 L277.587333,117.111111 L268.294,90.3644444 L268.294,90.3644444 Z M267.164444,87.1911111 L261.951111,72.2348889 C258.777778,63.1682222 256.054,55.4615556 253.337778,46.1682222 L252.880667,46.1682222 C250.164444,55.4615556 247.444444,63.1682222 244.271111,72.2348889 L238.944444,87.1911111 L267.164444,87.1911111 L267.164444,87.1911111 Z" id="labs-logo-a" fill="#403E35"></path>
                <path d="M65.9977778,213.467111 L84.1273333,213.467111 C99.0873333,213.467111 108.380667,219.360444 108.380667,231.600444 C108.380667,239.533778 103.847333,245.653778 95.0073333,247.920444 L95.0073333,248.373778 C106.117778,249.960444 113.140667,256.080444 113.140667,266.507111 C113.140667,280.783333 102.487333,288.267111 85.4873333,288.267111 L65.9977778,288.267111 L65.9977778,213.467111 L65.9977778,213.467111 Z M81.8644444,246.787111 C98.1806667,246.787111 104.754,241.573778 104.754,231.147111 C104.754,220.947111 97.0473333,216.644222 82.5444444,216.644222 L69.6244444,216.644222 L69.6244444,246.787111 L81.8644444,246.787111 L81.8644444,246.787111 Z M84.1273333,285.093778 C99.7673333,285.093778 109.514,279.427111 109.514,266.73 C109.514,255.396667 100.220667,249.960444 84.1273333,249.960444 L69.6244444,249.960444 L69.6244444,285.093778 L84.1273333,285.093778 L84.1273333,285.093778 Z" id="labs-logo-b" fill="#403E35"></path>
                <path d="M230.671111,275.800444 C236.337778,282.143333 244.720667,286.227111 254.244444,286.227111 C266.937778,286.227111 275.094,279.65 275.094,270.133778 C275.094,260.160444 268.180667,256.983333 260.134,253.587111 L248.577778,248.373778 C241.777778,245.540444 232.257778,241.120444 232.257778,230.013778 C232.257778,219.360444 241.777778,212.110889 254.467333,212.110889 C263.987333,212.110889 271.467333,216.300444 276.004444,220.947111 L273.734,223.444222 C269.204444,218.680444 262.627333,215.507111 254.467333,215.507111 C243.364444,215.507111 235.880667,221.173778 235.880667,229.787111 C235.880667,239.080444 244.380667,242.593778 250.164444,244.973778 L261.720667,250.187111 C270.560667,253.927111 278.720667,258.347111 278.720667,269.903333 C278.720667,281.236667 268.974,289.623333 254.244444,289.623333 C242.684444,289.623333 234.071111,284.863333 228.177778,278.293778 L230.671111,275.800444" id="labs-logo-s" fill="#403E35"></path>
            </g>
        </g>
    </g>
</svg>