<svg width="58" height="58" viewBox="0 0 58 58" xmlns="http://www.w3.org/2000/svg" xmlns:sketch="http://www.bohemiancoding.com/sketch/ns"><g id="i" sketch:type="MSLayerGroup" ><path d="M1.813 57.101c-.24 0-.48-.093-.664-.278-.366-.373-.366-.974 0-1.347l54.375-55.194c.367-.371.96-.371 1.328 0 .366.373.366.974 0 1.347l-54.375 55.194c-.184.185-.424.278-.664.278" sketch:type="MSShapeGroup"/><path d="M56.188 57.101c-.24 0-.48-.093-.664-.278l-54.375-55.194c-.366-.373-.366-.974 0-1.347.367-.371.96-.371 1.327 0l54.375 55.194c.366.373.366.974 0 1.347-.184.185-.424.278-.664.278" sketch:type="MSShapeGroup"/></g></svg>
