<?xml version="1.0" encoding="UTF-8"?>
<svg width="219px" height="100px" viewBox="0 0 219 100" version="1.1" xmlns="http://www.w3.org/2000/svg" xmlns:xlink="http://www.w3.org/1999/xlink">
    <g id="Page-1" stroke="none" stroke-width="1" fill="none" fill-rule="evenodd">
        <g id="kollegorna-labs" fill="#201E1E">
            <g id="Group" transform="translate(0.000000, 11.000000)">
                <path d="M37.1333871,49.838848 L34.3415011,42.7770187 L32.5740887,51.0940236 C31.663011,55.3678771 29.6688067,57.5302202 25.6256553,57.5302202 L23.631451,57.5302202 C19.8737445,57.5302202 17.6488382,55.250571 18.5481852,50.9806277 L23.7878592,26.4284537 C24.7145777,22.0998574 26.7087819,20.1017429 30.6385374,20.1017429 L32.7539581,20.1017429 C36.5155748,20.1017429 38.7365709,22.3813921 37.8372239,26.6513354 L35.9916074,35.1990424 L49.1494454,19.5347632 C49.3214944,19.3627142 57.9239443,20.9033348 57.9239443,26.2564047 C57.9239443,28.211507 56.8408177,30.2995562 54.5064256,32.5127319 L46.8737064,40.258847 L49.8923843,46.2962027 C51.4290947,49.3735336 52.9110622,50.5114031 55.3666706,50.6247991 C55.757691,50.6247991 55.4253236,57.6905386 47.2217146,57.6905386 C41.2899344,57.6827181 39.1236812,54.9103832 37.1333871,49.838848 Z" id="Shape"></path>
                <path d="M39.12,78.073457 C60.6334003,78.073457 78.073457,60.6334003 78.073457,39.12 C78.073457,17.6065997 60.6334003,0.166542969 39.12,0.166542969 C17.6065997,0.166542969 0.166542969,17.6065997 0.166542969,39.12 C0.166542969,60.6334003 17.6065997,78.073457 39.12,78.073457 Z M39.12,72.2081503 C20.8459192,72.2081503 6.03184969,57.3940808 6.03184969,39.12 C6.03184969,20.8459192 20.8459192,6.03184969 39.12,6.03184969 C57.3940808,6.03184969 72.2081503,20.8459192 72.2081503,39.12 C72.2081503,57.3940808 57.3940808,72.2081503 39.12,72.2081503 Z" id="Oval"></path>
            </g>
            <polygon id="Rectangle" points="98 0 101 0 101 100 98 100"></polygon>
            <path d="M140.035,69 L139.485,65.59 L124.855,65.59 L124.855,31.05 L121.06,31.05 L121.06,69 L140.035,69 Z M164.51,69 L164.51,50.465 C164.51,45.13 161.54,42.435 155.765,42.435 C152.08,42.435 149.11,43.37 146.085,44.69 L146.58,47.935 C149.44,46.56 152.465,45.625 155.545,45.625 C158.845,45.625 160.935,47.11 160.935,50.63 L160.935,52.335 C149.165,53.49 144.215,56.35 144.215,62.455 C144.215,67.075 147.46,69.55 151.97,69.55 C155.71,69.55 158.735,67.79 161.155,65.535 L161.76,69 L164.51,69 Z M160.935,62.565 C158.405,64.93 155.325,66.47 152.52,66.47 C149.77,66.47 147.845,65.04 147.845,62.235 C147.845,58.715 150.705,56.24 160.935,55.195 L160.935,62.565 Z M194.87,55.25 C194.87,46.56 190.085,42.435 184.42,42.435 C180.79,42.435 178.26,44.36 176.39,46.395 L176.39,29.51 L172.76,30.17 L172.76,67.625 C175.675,68.615 178.59,69.33 182.22,69.33 C189.425,69.33 194.87,64.765 194.87,55.25 Z M191.185,55.415 C191.185,62.84 187.555,66.195 182.385,66.195 C179.745,66.195 178.04,65.81 176.39,65.15 L176.39,50.19 C178.7,47.495 181.12,45.68 184.035,45.68 C188.16,45.68 191.185,49.09 191.185,55.415 Z M219.07,61.96 C219.07,57.34 216.1,55.36 209.94,53.71 C205.54,52.555 204.11,51.455 204.11,49.31 C204.11,47.165 205.815,45.625 209.39,45.625 C211.975,45.625 214.615,46.395 216.98,47.66 L217.585,44.195 C215.275,43.15 212.58,42.435 209.5,42.435 C204.11,42.435 200.645,45.405 200.645,49.475 C200.645,53.765 203.12,55.635 208.895,57.12 C214.065,58.495 215.605,59.65 215.605,62.235 C215.605,64.875 213.35,66.415 209.72,66.415 C206.255,66.415 203.065,65.15 200.645,63.61 L200.04,67.13 C202.295,68.395 205.925,69.495 209.39,69.495 C215.385,69.495 219.07,66.69 219.07,61.96 Z" id="Labs"></path>
        </g>
    </g>
</svg>
